<svg width="15" height="15" viewBox="0 0 15 15" fill="none" xmlns="http://www.w3.org/2000/svg">
<path d="M14.1149 1.01137C14.4094 1.0917 14.6236 1.33269 14.6236 1.62723C14.6236 8.50879 9.05412 14.0515 2.19933 14.0515C1.87802 14.0515 1.63703 13.8641 1.5567 13.5695L0.914062 10.7848C0.86051 10.4903 0.994392 10.1689 1.28893 10.0351L4.2879 8.74978C4.55567 8.64267 4.85021 8.723 5.03764 8.93721L6.37647 10.5706C8.46503 9.57985 10.152 7.86615 11.1159 5.83114L9.48254 4.49232C9.26833 4.30488 9.188 4.01034 9.29511 3.74257L10.5804 0.743606C10.7143 0.449064 11.0356 0.288405 11.3301 0.368735L14.1149 1.01137Z" fill="#FFC700"/>
</svg>
