<svg width="24" height="24" viewBox="0 0 24 24" fill="none" xmlns="http://www.w3.org/2000/svg">
<g clip-path="url(#clip0_329_537)">
<path d="M4.99995 4H18.9999C19.3263 4.00229 19.647 4.08438 19.9343 4.23913C20.2216 4.39387 20.4667 4.61656 20.6482 4.88776C20.8296 5.15897 20.942 5.47046 20.9754 5.79506C21.0088 6.11965 20.9623 6.4475 20.8399 6.75L13.7399 19C13.567 19.3126 13.3135 19.5732 13.0057 19.7546C12.6979 19.9361 12.3472 20.0318 11.9899 20.0318C11.6327 20.0318 11.2819 19.9361 10.9742 19.7546C10.6664 19.5732 10.4129 19.3126 10.2399 19L3.13995 6.75C3.01989 6.45442 2.97228 6.13442 3.0011 5.81669C3.02991 5.49897 3.13432 5.19275 3.3056 4.9236C3.47688 4.65444 3.71006 4.43017 3.98567 4.2695C4.26129 4.10883 4.57134 4.01643 4.88995 4" stroke="#DDC411" stroke-width="2" stroke-linecap="round" stroke-linejoin="round"/>
<path d="M12.2564 14.0994C11.745 14.0994 11.2905 14.0118 10.8928 13.8366C10.4974 13.6615 10.1849 13.4176 9.95526 13.1051C9.72562 12.7926 9.60369 12.4316 9.58949 12.022H10.9247C10.9366 12.2185 11.0017 12.3902 11.12 12.5369C11.2384 12.6813 11.3958 12.7938 11.5923 12.8743C11.7888 12.9548 12.009 12.995 12.2528 12.995C12.5133 12.995 12.7441 12.95 12.9453 12.8601C13.1465 12.7678 13.304 12.6399 13.4176 12.4766C13.5313 12.3132 13.5869 12.125 13.5845 11.9119C13.5869 11.6918 13.5301 11.4976 13.4141 11.3295C13.2981 11.1615 13.13 11.0301 12.9098 10.9354C12.692 10.8407 12.4292 10.7933 12.1214 10.7933H11.4787V9.7777H12.1214C12.3748 9.7777 12.5961 9.7339 12.7855 9.64631C12.9773 9.55871 13.1276 9.43561 13.2365 9.27699C13.3454 9.116 13.3987 8.93016 13.3963 8.71946C13.3987 8.51349 13.3525 8.33475 13.2578 8.18324C13.1655 8.02936 13.0341 7.9098 12.8636 7.82457C12.6955 7.73935 12.4979 7.69673 12.2706 7.69673C12.0481 7.69673 11.8421 7.73698 11.6527 7.81747C11.4633 7.89796 11.3106 8.01278 11.1946 8.16193C11.0786 8.30871 11.017 8.4839 11.0099 8.6875H9.74219C9.75166 8.2803 9.86884 7.92282 10.0938 7.61506C10.321 7.30492 10.6241 7.06345 11.0028 6.89062C11.3816 6.71544 11.8066 6.62784 12.2777 6.62784C12.763 6.62784 13.1844 6.71899 13.5419 6.90128C13.9018 7.0812 14.1799 7.32386 14.3764 7.62926C14.5729 7.93466 14.6712 8.27202 14.6712 8.64134C14.6735 9.0509 14.5528 9.39418 14.3089 9.67116C14.0675 9.94815 13.7502 10.1293 13.3572 10.2145V10.2713C13.8686 10.3423 14.2604 10.5317 14.5327 10.8395C14.8073 11.1449 14.9434 11.5249 14.9411 11.9794C14.9411 12.3866 14.825 12.7512 14.593 13.0732C14.3634 13.3928 14.0462 13.6437 13.6413 13.826C13.2389 14.0083 12.7772 14.0994 12.2564 14.0994Z" fill="#DDC411"/>
</g>
<defs>
<clipPath id="clip0_329_537">
<rect width="24" height="24" fill="white"/>
</clipPath>
</defs>
</svg>
