<svg width="15" height="15" viewBox="0 0 15 15" fill="none" xmlns="http://www.w3.org/2000/svg">
<path d="M0.169922 11.8516C1.29102 12.6445 3.3418 13 5.41992 13C7.4707 13 9.52148 12.6445 10.6699 11.8516V13C10.6699 13.9844 8.31836 14.75 5.41992 14.75C2.52148 14.75 0.169922 13.9844 0.169922 13V11.8516ZM8.91992 4.25C6.02148 4.25 3.66992 3.48438 3.66992 2.5C3.66992 1.54297 6.02148 0.75 8.91992 0.75C11.8184 0.75 14.1699 1.54297 14.1699 2.5C14.1699 3.48438 11.8184 4.25 8.91992 4.25ZM0.169922 8.98047C1.29102 9.91016 3.3418 10.375 5.41992 10.375C7.4707 10.375 9.52148 9.91016 10.6699 8.98047V10.375C10.6699 11.3594 8.31836 12.125 5.41992 12.125C2.52148 12.125 0.169922 11.3594 0.169922 10.375V8.98047ZM11.5449 9.28125V7.53125C12.584 7.33984 13.5137 7.03906 14.1699 6.60156V7.75C14.1699 8.40625 13.1035 8.98047 11.5449 9.28125ZM5.41992 5.125C8.31836 5.125 10.6699 6.10938 10.6699 7.3125C10.6699 8.54297 8.31836 9.5 5.41992 9.5C2.52148 9.5 0.169922 8.54297 0.169922 7.3125C0.169922 6.10938 2.52148 5.125 5.41992 5.125ZM11.4082 6.68359C11.1621 6.02734 10.5605 5.50781 9.76758 5.125C11.5176 5.01562 13.1855 4.66016 14.1699 3.97656V5.125C14.1699 5.80859 13.0488 6.38281 11.4082 6.68359Z" fill="#FFFF00"/>
</svg>
