<svg width="29" height="29" viewBox="0 0 29 29" fill="none" xmlns="http://www.w3.org/2000/svg">
<path d="M27.3633 1.86719C27.9648 2.03125 28.4023 2.52344 28.4023 3.125C28.4023 17.1797 17.0273 28.5 3.02734 28.5C2.37109 28.5 1.87891 28.1172 1.71484 27.5156L0.402344 21.8281C0.292969 21.2266 0.566406 20.5703 1.16797 20.2969L7.29297 17.6719C7.83984 17.4531 8.44141 17.6172 8.82422 18.0547L11.5586 21.3906C15.8242 19.3672 19.2695 15.8672 21.2383 11.7109L17.9023 8.97656C17.4648 8.59375 17.3008 7.99219 17.5195 7.44531L20.1445 1.32031C20.418 0.71875 21.0742 0.390625 21.6758 0.554688L27.3633 1.86719Z" fill="#8C7F17"/>
</svg>
