<svg width="33" height="28" viewBox="0 0 33 28" fill="none" xmlns="http://www.w3.org/2000/svg">
<path d="M17 0C25.8125 0 33 5.875 33 13C33 20.1875 25.8125 26 17 26C14.5625 26 12.3125 25.5625 10.25 24.8125C8.75 26.0625 5.625 28 1.5 28C1.25 28 1.125 27.9375 1 27.75C0.9375 27.5625 1 27.3125 1.125 27.1875C1.125 27.125 3.75 24.375 4.5625 21.1875C2.3125 18.9375 1 16.125 1 13C1 5.875 8.125 0 17 0ZM9 17C10.4375 17 11.625 15.9375 11.625 14.625C11.625 13.9375 11.3125 13.3125 10.8125 12.875L9.4375 11.6875C9.375 11.625 9.3125 11.5 9.3125 11.4375C9.3125 11.25 9.5625 11.0625 9.9375 11.0625H10.75C11 11.0625 11.25 10.8125 11.25 10.5625V9.5625C11.25 9.25 11 9.0625 10.75 9.0625H9.9375C8.5 9.0625 7.3125 10.125 7.3125 11.4375C7.3125 12.125 7.625 12.75 8.125 13.1875L9.5 14.375C9.5625 14.4375 9.625 14.5625 9.625 14.625C9.625 14.8125 9.375 15 9 15H8.25C7.9375 15 7.75 15.25 7.75 15.5V16.5C7.75 16.8125 7.9375 17 8.25 17H9ZM21 16.5V10C21 9.5 20.5 9 20 9H19C18.625 9 18.25 9.25 18.0625 9.5625L17 11.8125L15.875 9.5625C15.6875 9.25 15.375 9 15 9H14C13.4375 9 13 9.5 13 10V16.5C13 16.8125 13.1875 17 13.5 17H14.5C14.75 17 15 16.8125 15 16.5V12.25L16.5 15.75C16.6875 16.125 17.25 16.125 17.4375 15.75L19 12.25V16.5C19 16.8125 19.1875 17 19.5 17H20.5C20.75 17 21 16.8125 21 16.5ZM24 17C25.4375 17 26.625 15.9375 26.625 14.625C26.625 13.9375 26.3125 13.3125 25.8125 12.875L24.4375 11.6875C24.375 11.625 24.3125 11.5 24.3125 11.4375C24.3125 11.25 24.5625 11.0625 24.9375 11.0625H25.75C26 11.0625 26.25 10.8125 26.25 10.5625V9.5625C26.25 9.25 26 9.0625 25.75 9.0625H24.9375C23.5 9.0625 22.3125 10.125 22.3125 11.4375C22.3125 12.125 22.625 12.75 23.125 13.1875L24.5 14.375C24.5625 14.4375 24.625 14.5625 24.625 14.625C24.625 14.8125 24.375 15 24 15H23.25C22.9375 15 22.75 15.25 22.75 15.5V16.5C22.75 16.8125 22.9375 17 23.25 17H24Z" fill="#FFE4C4"/>
</svg>
