<svg width="24" height="24" viewBox="0 0 24 24" fill="none" xmlns="http://www.w3.org/2000/svg">
<g clip-path="url(#clip0_329_529)">
<path d="M5.00019 4H19.0002C19.3265 4.00229 19.6473 4.08438 19.9346 4.23913C20.2219 4.39387 20.4669 4.61656 20.6484 4.88776C20.8299 5.15897 20.9422 5.47046 20.9756 5.79506C21.0091 6.11965 20.9626 6.4475 20.8402 6.75L13.7402 19C13.5672 19.3126 13.3137 19.5732 13.0059 19.7546C12.6982 19.9361 12.3474 20.0318 11.9902 20.0318C11.6329 20.0318 11.2822 19.9361 10.9744 19.7546C10.6667 19.5732 10.4131 19.3126 10.2402 19L3.14019 6.75C3.02013 6.45442 2.97252 6.13442 3.00134 5.81669C3.03016 5.49897 3.13456 5.19275 3.30584 4.9236C3.47712 4.65444 3.7103 4.43017 3.98592 4.2695C4.26153 4.10883 4.57158 4.01643 4.89019 4" stroke="#D32A2A" stroke-width="2" stroke-linecap="round" stroke-linejoin="round"/>
<path d="M9.64631 14V13.0483L12.1712 10.5732C12.4126 10.3293 12.6139 10.1127 12.7749 9.9233C12.9358 9.7339 13.0566 9.55043 13.1371 9.37287C13.2176 9.19531 13.2578 9.00592 13.2578 8.80469C13.2578 8.57505 13.2057 8.37855 13.1016 8.2152C12.9974 8.04948 12.8542 7.92164 12.6719 7.83168C12.4896 7.74171 12.2824 7.69673 12.0504 7.69673C11.8113 7.69673 11.6018 7.74645 11.4219 7.84588C11.242 7.94294 11.1023 8.08144 11.0028 8.26136C10.9058 8.44129 10.8572 8.65554 10.8572 8.90412H9.60369C9.60369 8.44247 9.70904 8.04119 9.91974 7.70028C10.1304 7.35937 10.4205 7.09541 10.7898 6.90838C11.1615 6.72135 11.5876 6.62784 12.0682 6.62784C12.5559 6.62784 12.9844 6.71899 13.3537 6.90128C13.723 7.08357 14.0095 7.33333 14.2131 7.65057C14.419 7.9678 14.522 8.33002 14.522 8.73722C14.522 9.00947 14.4699 9.27699 14.3658 9.53977C14.2616 9.80256 14.0781 10.0937 13.8153 10.4134C13.5549 10.733 13.1892 11.12 12.718 11.5746L11.4645 12.8494V12.8991H14.6321V14H9.64631Z" fill="#D32A2A"/>
</g>
<defs>
<clipPath id="clip0_329_529">
<rect width="24" height="24" fill="white"/>
</clipPath>
</defs>
</svg>
