<svg width="20" height="21" viewBox="0 0 20 21" fill="none" xmlns="http://www.w3.org/2000/svg">
<path d="M16.6673 10.5C16.6673 10.2789 16.5795 10.067 16.4232 9.9107C16.267 9.75442 16.055 9.66663 15.834 9.66663H9.50898L11.4257 7.75829C11.5033 7.68059 11.565 7.58835 11.607 7.48683C11.6491 7.38532 11.6707 7.27651 11.6707 7.16663C11.6707 7.05674 11.6491 6.94794 11.607 6.84642C11.565 6.7449 11.5033 6.65266 11.4257 6.57496C11.348 6.49726 11.2557 6.43563 11.1542 6.39358C11.0527 6.35153 10.9439 6.32988 10.834 6.32988C10.7241 6.32988 10.6153 6.35153 10.5138 6.39358C10.4123 6.43563 10.32 6.49726 10.2423 6.57496L6.90898 9.90829C6.83312 9.98755 6.77365 10.081 6.73398 10.1833C6.65064 10.3862 6.65064 10.6137 6.73398 10.8166C6.77365 10.9189 6.83312 11.0124 6.90898 11.0916L10.2423 14.425C10.3198 14.5031 10.412 14.5651 10.5135 14.6074C10.6151 14.6497 10.724 14.6715 10.834 14.6715C10.944 14.6715 11.0529 14.6497 11.1545 14.6074C11.256 14.5651 11.3482 14.5031 11.4257 14.425C11.5038 14.3475 11.5658 14.2553 11.6081 14.1538C11.6504 14.0522 11.6721 13.9433 11.6721 13.8333C11.6721 13.7233 11.6504 13.6144 11.6081 13.5128C11.5658 13.4113 11.5038 13.3191 11.4257 13.2416L9.50898 11.3333H15.834C16.055 11.3333 16.267 11.2455 16.4232 11.0892C16.5795 10.9329 16.6673 10.721 16.6673 10.5ZM14.1673 2.16663H5.83398C5.17094 2.16663 4.53506 2.43002 4.06622 2.89886C3.59738 3.3677 3.33398 4.00358 3.33398 4.66663V16.3333C3.33398 16.9963 3.59738 17.6322 4.06622 18.1011C4.53506 18.5699 5.17094 18.8333 5.83398 18.8333H14.1673C14.8304 18.8333 15.4662 18.5699 15.9351 18.1011C16.4039 17.6322 16.6673 16.9963 16.6673 16.3333V13.8333C16.6673 13.6123 16.5795 13.4003 16.4232 13.244C16.267 13.0878 16.055 13 15.834 13C15.613 13 15.401 13.0878 15.2447 13.244C15.0884 13.4003 15.0007 13.6123 15.0007 13.8333V16.3333C15.0007 16.5543 14.9129 16.7663 14.7566 16.9225C14.6003 17.0788 14.3883 17.1666 14.1673 17.1666H5.83398C5.61297 17.1666 5.40101 17.0788 5.24473 16.9225C5.08845 16.7663 5.00065 16.5543 5.00065 16.3333V4.66663C5.00065 4.44561 5.08845 4.23365 5.24473 4.07737C5.40101 3.92109 5.61297 3.83329 5.83398 3.83329H14.1673C14.3883 3.83329 14.6003 3.92109 14.7566 4.07737C14.9129 4.23365 15.0007 4.44561 15.0007 4.66663V7.16663C15.0007 7.38764 15.0884 7.5996 15.2447 7.75588C15.401 7.91216 15.613 7.99996 15.834 7.99996C16.055 7.99996 16.267 7.91216 16.4232 7.75588C16.5795 7.5996 16.6673 7.38764 16.6673 7.16663V4.66663C16.6673 4.00358 16.4039 3.3677 15.9351 2.89886C15.4662 2.43002 14.8304 2.16663 14.1673 2.16663Z" fill="#FF2363"/>
</svg>
