<svg width="19" height="19" viewBox="0 0 19 19" fill="none" xmlns="http://www.w3.org/2000/svg">
<path fill-rule="evenodd" clip-rule="evenodd" d="M5.39344 3.81348L9.18638 3.41614L12.9796 3.81348L15.9163 7.71975L9.18664 15.4853L2.45703 7.71975L5.39344 3.81348Z" fill="#FDB300"/>
<path fill-rule="evenodd" clip-rule="evenodd" d="M5.18296 7.7667L9.18664 15.4853L2.45703 7.7667H5.18296Z" fill="#EA6C00"/>
<path fill-rule="evenodd" clip-rule="evenodd" d="M13.1911 7.7667L9.18664 15.4853L15.9167 7.7667H13.1911Z" fill="#EA6C00"/>
<path fill-rule="evenodd" clip-rule="evenodd" d="M5.12192 7.7667H13.1134L9.11764 15.4853L5.12192 7.7667Z" fill="#FDAD00"/>
<path fill-rule="evenodd" clip-rule="evenodd" d="M9.04757 3.41614L5.32842 3.81773L5.12192 7.7667L9.04757 3.41614Z" fill="#FDD231"/>
<path fill-rule="evenodd" clip-rule="evenodd" d="M9.18638 3.41614L12.9047 3.81773L13.1134 7.7667L9.18638 3.41614Z" fill="#FDD231"/>
<path fill-rule="evenodd" clip-rule="evenodd" d="M15.9167 7.7667L12.9724 3.83644L13.1836 7.76607L15.9167 7.7667Z" fill="#FDAD00"/>
<path fill-rule="evenodd" clip-rule="evenodd" d="M2.45703 7.7667L5.40114 3.83644L5.18986 7.76607L2.45703 7.7667Z" fill="#FDAD00"/>
<path fill-rule="evenodd" clip-rule="evenodd" d="M9.11764 3.41614L5.12192 7.7667H13.1134L9.11764 3.41614Z" fill="#FEEEB7"/>
</svg>
