<svg width="18" height="18" viewBox="0 0 18 18" fill="none" xmlns="http://www.w3.org/2000/svg">
<path d="M17.6258 7.26562C17.9578 7.56445 17.9578 8.0625 17.6258 8.39453L13.5086 12.5117C13.2098 12.8438 12.6785 12.8438 12.3797 12.5117L11.616 11.7812C11.3172 11.4492 11.3172 10.9512 11.616 10.6523L11.8152 10.4531L10.5203 9.125L7.79766 11.8145L7.99688 12.0137C8.42852 12.4453 8.42852 13.1094 7.99688 13.5078L4.17852 17.3262C3.78008 17.7578 3.11602 17.7578 2.68438 17.3262L1.19024 15.832C0.758595 15.4004 0.758595 14.7363 1.19024 14.3379L5.00859 10.5195C5.40703 10.0879 6.07109 10.0879 6.50274 10.5195L6.70195 10.7188L9.39141 7.99609L8.06328 6.70117L7.86406 6.90039C7.56524 7.19922 7.06719 7.19922 6.73516 6.90039L6.00469 6.13672C5.67266 5.83789 5.67266 5.30664 6.00469 5.00781L10.1219 0.890625C10.4539 0.558594 10.952 0.558594 11.2508 0.890625L12.0145 1.62109C12.3133 1.95312 12.3133 2.45117 12.0145 2.75L11.8152 2.94922L15.5672 6.70117L15.7664 6.50195C16.0652 6.20312 16.5633 6.20312 16.8953 6.50195L17.6258 7.26562Z" fill="white"/>
</svg>
