<svg width="16" height="18" viewBox="0 0 16 18" fill="none" xmlns="http://www.w3.org/2000/svg">
<path d="M13.1727 4.37695C14.5008 4.21094 15.6961 5.24023 15.6961 6.56836V10.9512C15.6629 11.4824 15.6297 11.9805 15.4969 12.4785L14.5008 16.8281C14.4012 17.293 13.9695 17.6582 13.4715 17.6582H6.06719C5.70195 17.6582 5.40313 17.459 5.20391 17.1934L1.21953 11.6152C0.522266 10.6191 0.721485 9.22461 1.71758 8.52734C2.31524 8.0625 3.11211 7.96289 3.77617 8.22852V4.01172C3.77617 2.55078 5.1375 1.52148 6.49883 1.88672C7.2957 0.259766 9.55352 0.193359 10.4168 1.85352C11.8445 1.48828 13.1727 2.58398 13.1727 4.01172V4.37695ZM14.0691 10.9512V6.56836C14.0691 5.77148 12.8738 5.73828 12.8738 6.60156V9.125C12.8738 9.42383 12.6414 9.65625 12.3426 9.65625H12.1102C11.8113 9.65625 11.5789 9.42383 11.5789 9.125V4.01172C11.5789 3.18164 10.3504 3.14844 10.3504 4.01172V9.125C10.3504 9.42383 10.118 9.65625 9.81914 9.65625H9.61992C9.32109 9.65625 9.08867 9.42383 9.08867 9.125V2.88281C9.08867 2.05273 7.86016 2.01953 7.86016 2.84961V9.125C7.86016 9.42383 7.62774 9.65625 7.32891 9.65625H7.09649C6.79766 9.65625 6.56524 9.42383 6.56524 9.125V4.04492C6.56524 3.21484 5.36992 3.18164 5.36992 4.01172V10.8848C5.36992 11.416 4.70586 11.6152 4.40703 11.1836L3.47734 9.92188C3.0125 9.25781 2.04961 10.0215 2.51445 10.6855L6.33281 16.0312H13.0398L13.9695 12.1133C14.0359 11.748 14.0691 11.3496 14.0691 10.9512Z" fill="white"/>
</svg>
