<svg width="23" height="18" viewBox="0 0 23 18" fill="none" xmlns="http://www.w3.org/2000/svg">
<path d="M21.1433 4.57617C22.239 6.36914 21.2429 8.82617 19.1843 9.0918C19.0183 9.125 18.8855 9.125 18.7195 9.125C17.7234 9.125 16.8601 8.69336 16.2624 8.0293C15.6648 8.69336 14.8015 9.125 13.8054 9.125C12.8425 9.125 11.946 8.69336 11.3484 8.0293C10.7507 8.69336 9.88743 9.125 8.92454 9.125C7.92844 9.125 7.06516 8.69336 6.46751 8.0293C5.86985 8.69336 5.00657 9.125 4.01047 9.125C3.84446 9.125 3.71165 9.125 3.54563 9.0918C1.48704 8.82617 0.490943 6.36914 1.61985 4.57617L3.74485 1.12305C3.94407 0.824219 4.3093 0.625 4.67454 0.625H18.0886C18.4538 0.625 18.7859 0.824219 18.9851 1.12305L21.1433 4.57617ZM18.7195 10.1875C18.9187 10.1875 19.1179 10.1875 19.3171 10.1543C19.5163 10.1543 19.6823 10.0879 19.8816 10.0547V16.5625C19.8816 17.1602 19.3835 17.625 18.8191 17.625H3.94407C3.34641 17.625 2.88157 17.1602 2.88157 16.5625V10.0547C3.04758 10.0879 3.2136 10.1211 3.41282 10.1543C3.61204 10.1875 3.81126 10.1875 4.01047 10.1875C4.34251 10.1875 4.67454 10.1543 5.00657 10.0879V13.375H17.7566V10.0879C18.0554 10.1543 18.3874 10.1875 18.7195 10.1875Z" fill="white"/>
</svg>
