<svg width="22" height="12" viewBox="0 0 22 12" fill="none" xmlns="http://www.w3.org/2000/svg">
<path d="M15.9406 0.8125C18.8625 0.845703 21.2531 3.20312 21.2531 6.1582C21.2531 9.08008 18.8625 11.4707 15.9406 11.4707C14.4465 11.4707 13.0852 10.8398 12.1223 9.84375H9.10078C8.13789 10.8398 6.77656 11.4375 5.31563 11.4375C2.36055 11.4375 0.00312519 9.08008 0.00312519 6.125C0.00312519 3.20312 2.36055 0.8125 5.31563 0.8125H15.9406ZM8.2375 6.52344V5.72656C8.2375 5.52734 8.03828 5.32812 7.83906 5.32812H6.1125V3.60156C6.1125 3.40234 5.91328 3.20312 5.71406 3.20312H4.91719C4.68477 3.20312 4.51875 3.40234 4.51875 3.60156V5.32812H2.79219C2.55977 5.32812 2.39375 5.52734 2.39375 5.72656V6.52344C2.39375 6.75586 2.55977 6.92188 2.79219 6.92188H4.51875V8.64844C4.51875 8.88086 4.68477 9.04688 4.91719 9.04688H5.71406C5.91328 9.04688 6.1125 8.88086 6.1125 8.64844V6.92188H7.83906C8.03828 6.92188 8.2375 6.75586 8.2375 6.52344ZM15.4094 9.04688C16.1398 9.04688 16.7375 8.48242 16.7375 7.71875C16.7375 6.98828 16.1398 6.39062 15.4094 6.39062C14.6457 6.39062 14.0813 6.98828 14.0813 7.71875C14.0813 8.48242 14.6457 9.04688 15.4094 9.04688ZM17.5344 5.85938C18.2648 5.85938 18.8625 5.29492 18.8625 4.53125C18.8625 3.80078 18.2648 3.20312 17.5344 3.20312C16.7707 3.20312 16.2063 3.80078 16.2063 4.53125C16.2063 5.29492 16.7707 5.85938 17.5344 5.85938Z" fill="white"/>
</svg>
