<svg width="22" height="18" viewBox="0 0 22 18" fill="none" xmlns="http://www.w3.org/2000/svg">
<path d="M20.8703 0.625C21.4348 0.625 21.9328 1.12305 21.9328 1.6875V12.3125C21.9328 12.9102 21.4348 13.375 20.8703 13.375H16.6203V2.75H10.2453V4.875H4.93281V1.6875C4.93281 1.12305 5.39766 0.625 5.99531 0.625H20.8703ZM8.38594 4.04492V3.04883C8.38594 2.91602 8.21992 2.75 8.08711 2.75H7.09102C6.925 2.75 6.79219 2.91602 6.79219 3.04883V4.04492C6.79219 4.21094 6.925 4.34375 7.09102 4.34375H8.08711C8.21992 4.34375 8.38594 4.21094 8.38594 4.04492ZM20.0734 10.9512V9.95508C20.0734 9.82227 19.9074 9.65625 19.7746 9.65625H18.7785C18.6125 9.65625 18.4797 9.82227 18.4797 9.95508V10.9512C18.4797 11.1172 18.6125 11.25 18.7785 11.25H19.7746C19.9074 11.25 20.0734 11.1172 20.0734 10.9512ZM20.0734 7.49805V6.50195C20.0734 6.36914 19.9074 6.20312 19.7746 6.20312H18.7785C18.6125 6.20312 18.4797 6.36914 18.4797 6.50195V7.49805C18.4797 7.66406 18.6125 7.79688 18.7785 7.79688H19.7746C19.9074 7.79688 20.0734 7.66406 20.0734 7.49805ZM20.0734 4.04492V3.04883C20.0734 2.91602 19.9074 2.75 19.7746 2.75H18.7785C18.6125 2.75 18.4797 2.91602 18.4797 3.04883V4.04492C18.4797 4.21094 18.6125 4.34375 18.7785 4.34375H19.7746C19.9074 4.34375 20.0734 4.21094 20.0734 4.04492ZM14.4953 5.9375C15.0598 5.9375 15.5578 6.43555 15.5578 7V16.5625C15.5578 17.1602 15.0598 17.625 14.4953 17.625H1.74531C1.14766 17.625 0.682813 17.1602 0.682813 16.5625V7C0.682813 6.43555 1.14766 5.9375 1.74531 5.9375H14.4953ZM3.87031 8.0625C3.27266 8.0625 2.80781 8.56055 2.80781 9.125C2.80781 9.72266 3.27266 10.1875 3.87031 10.1875C4.43477 10.1875 4.93281 9.72266 4.93281 9.125C4.93281 8.56055 4.43477 8.0625 3.87031 8.0625ZM13.4328 15.5V12.3125L10.2453 9.125L5.99531 13.375L4.93281 12.3125L2.80781 14.4375V15.5H13.4328Z" fill="white"/>
</svg>
