<svg width="18" height="14" viewBox="0 0 18 14" fill="none" xmlns="http://www.w3.org/2000/svg">
<path d="M17.1844 0.75C17.616 0.75 17.9813 1.11523 17.9813 1.54688V12.7031C17.9813 13.168 17.616 13.5 17.1844 13.5H16.9188V12.8359C16.9188 12.6367 16.7195 12.4375 16.5203 12.4375H15.1922C14.9598 12.4375 14.7938 12.6367 14.7938 12.8359V13.5H4.16875V12.8359C4.16875 12.6367 3.96953 12.4375 3.77031 12.4375H2.44219C2.20977 12.4375 2.04375 12.6367 2.04375 12.8359V13.5H1.77813C1.31328 13.5 0.981251 13.168 0.981251 12.7031V1.54688C0.981251 1.11523 1.31328 0.75 1.77813 0.75H2.04375V1.41406C2.04375 1.64648 2.20977 1.8125 2.44219 1.8125H3.77031C3.96953 1.8125 4.16875 1.64648 4.16875 1.41406V0.75H14.7938V1.41406C14.7938 1.64648 14.9598 1.8125 15.1922 1.8125H16.5203C16.7195 1.8125 16.9188 1.64648 16.9188 1.41406V0.75H17.1844ZM4.16875 10.9766V9.64844C4.16875 9.44922 3.96953 9.25 3.77031 9.25H2.44219C2.20977 9.25 2.04375 9.44922 2.04375 9.64844V10.9766C2.04375 11.209 2.20977 11.375 2.44219 11.375H3.77031C3.96953 11.375 4.16875 11.209 4.16875 10.9766ZM4.16875 7.78906V6.46094C4.16875 6.26172 3.96953 6.0625 3.77031 6.0625H2.44219C2.20977 6.0625 2.04375 6.26172 2.04375 6.46094V7.78906C2.04375 8.02148 2.20977 8.1875 2.44219 8.1875H3.77031C3.96953 8.1875 4.16875 8.02148 4.16875 7.78906ZM4.16875 4.60156V3.27344C4.16875 3.07422 3.96953 2.875 3.77031 2.875H2.44219C2.20977 2.875 2.04375 3.07422 2.04375 3.27344V4.60156C2.04375 4.83398 2.20977 5 2.44219 5H3.77031C3.96953 5 4.16875 4.83398 4.16875 4.60156ZM13.2 11.5078V8.32031C13.2 8.12109 13.0008 7.92188 12.8016 7.92188H6.16094C5.92852 7.92188 5.7625 8.12109 5.7625 8.32031V11.5078C5.7625 11.7402 5.92852 11.9062 6.16094 11.9062H12.8016C13.0008 11.9062 13.2 11.7402 13.2 11.5078ZM13.2 5.92969V2.74219C13.2 2.54297 13.0008 2.34375 12.8016 2.34375H6.16094C5.92852 2.34375 5.7625 2.54297 5.7625 2.74219V5.92969C5.7625 6.16211 5.92852 6.32812 6.16094 6.32812H12.8016C13.0008 6.32812 13.2 6.16211 13.2 5.92969ZM16.9188 10.9766V9.64844C16.9188 9.44922 16.7195 9.25 16.5203 9.25H15.1922C14.9598 9.25 14.7938 9.44922 14.7938 9.64844V10.9766C14.7938 11.209 14.9598 11.375 15.1922 11.375H16.5203C16.7195 11.375 16.9188 11.209 16.9188 10.9766ZM16.9188 7.78906V6.46094C16.9188 6.26172 16.7195 6.0625 16.5203 6.0625H15.1922C14.9598 6.0625 14.7938 6.26172 14.7938 6.46094V7.78906C14.7938 8.02148 14.9598 8.1875 15.1922 8.1875H16.5203C16.7195 8.1875 16.9188 8.02148 16.9188 7.78906ZM16.9188 4.60156V3.27344C16.9188 3.07422 16.7195 2.875 16.5203 2.875H15.1922C14.9598 2.875 14.7938 3.07422 14.7938 3.27344V4.60156C14.7938 4.83398 14.9598 5 15.1922 5H16.5203C16.7195 5 16.9188 4.83398 16.9188 4.60156Z" fill="white"/>
</svg>
