<svg width="20" height="16" viewBox="0 0 20 16" fill="none" xmlns="http://www.w3.org/2000/svg">
<path d="M14.2375 6C14.2375 8.95508 11.1164 11.3125 7.33125 11.3125C5.96992 11.3125 4.675 11.0137 3.6125 10.4824C2.88203 10.9141 1.88594 11.3125 0.690625 11.3125C0.557813 11.3125 0.491406 11.2793 0.425 11.1797C0.391797 11.0801 0.425 10.9473 0.491406 10.8809C0.491406 10.8809 1.22188 10.084 1.68672 9.05469C0.889844 8.19141 0.425 7.16211 0.425 6C0.425 3.07812 3.51289 0.6875 7.33125 0.6875C11.1164 0.6875 14.2375 3.07812 14.2375 6ZM18.2883 13.3047C18.7199 14.334 19.4504 15.1309 19.4504 15.1309C19.55 15.1973 19.55 15.3301 19.5168 15.4297C19.4836 15.5293 19.384 15.5625 19.2844 15.5625C18.0559 15.5625 17.0598 15.1641 16.3293 14.7324C15.2668 15.2637 14.0051 15.5625 12.6438 15.5625C9.75508 15.5625 7.29805 14.2344 6.26875 12.3418C6.60078 12.375 6.96602 12.375 7.33125 12.375C11.7141 12.375 15.3 9.51953 15.3 6C15.3 5.80078 15.2668 5.56836 15.2336 5.33594C17.757 6.13281 19.55 8.05859 19.55 10.25C19.55 11.4121 19.052 12.4414 18.2883 13.3047Z" fill="white"/>
</svg>
