<svg width="35" height="32" viewBox="0 0 35 32" fill="none" xmlns="http://www.w3.org/2000/svg">
<g filter="url(#filter0_d_352_385)">
<path d="M4.5 8C4.5 14.6274 12.3726 24 19 24C25.6274 24 31 18.6274 31 12C31 5.37258 25.6274 0 19 0C12.3726 0 4.5 1.37258 4.5 8Z" fill="white" fill-opacity="0.1" shape-rendering="crispEdges"/>
</g>
<path d="M11.6387 10.0642C11.9387 8.65248 12.7344 7.36757 13.8794 6.44625C15.0504 5.50935 16.5056 4.99926 18.0052 5C19.773 5 21.4241 5.68105 22.6585 6.91779C23.8514 8.11449 24.5052 9.69451 24.5 11.3656C24.4999 12.5909 24.1402 13.7891 23.4655 14.8118L23.3393 14.9874L24.0357 18L20.7044 17.1712C20.7044 17.1712 20.6377 17.1936 20.5884 17.2125C20.539 17.2313 20.1145 17.3941 19.6641 17.52C19.2898 17.6245 18.511 17.7812 17.9007 17.7812C16.1698 17.7812 14.5535 17.1109 13.3499 15.8933C12.1569 14.6853 11.5 13.0792 11.5 11.3691C11.4999 10.9305 11.5464 10.493 11.6387 10.0642ZM20.7857 12.4286C20.9693 12.4286 21.1489 12.3741 21.3016 12.2721C21.4543 12.17 21.5733 12.025 21.6436 11.8553C21.7139 11.6857 21.7322 11.499 21.6964 11.3188C21.6606 11.1387 21.5721 10.9733 21.4423 10.8434C21.3124 10.7135 21.147 10.6251 20.9668 10.5893C20.7867 10.5534 20.6 10.5718 20.4303 10.6421C20.2607 10.7124 20.1156 10.8314 20.0136 10.9841C19.9116 11.1368 19.8571 11.3163 19.8571 11.5C19.8571 11.7463 19.9549 11.9825 20.1291 12.1566C20.3032 12.3307 20.5394 12.4286 20.7857 12.4286ZM18 12.4286C18.1836 12.4286 18.3632 12.3741 18.5159 12.2721C18.6686 12.17 18.7876 12.025 18.8579 11.8553C18.9281 11.6857 18.9465 11.499 18.9107 11.3188C18.8749 11.1387 18.7864 10.9733 18.6566 10.8434C18.5267 10.7135 18.3612 10.6251 18.1811 10.5893C18.001 10.5534 17.8143 10.5718 17.6446 10.6421C17.4749 10.7124 17.3299 10.8314 17.2279 10.9841C17.1259 11.1368 17.0714 11.3163 17.0714 11.5C17.0714 11.7463 17.1692 11.9825 17.3434 12.1566C17.5175 12.3307 17.7537 12.4286 18 12.4286ZM15.2143 12.4286C15.3979 12.4286 15.5774 12.3741 15.7301 12.2721C15.8828 12.17 16.0019 12.025 16.0721 11.8553C16.1424 11.6857 16.1608 11.499 16.125 11.3188C16.0892 11.1387 16.0007 10.9733 15.8709 10.8434C15.741 10.7135 15.5755 10.6251 15.3954 10.5893C15.2153 10.5534 15.0286 10.5718 14.8589 10.6421C14.6892 10.7124 14.5442 10.8314 14.4422 10.9841C14.3401 11.1368 14.2857 11.3163 14.2857 11.5C14.2857 11.7463 14.3835 11.9825 14.5577 12.1566C14.7318 12.3307 14.968 12.4286 15.2143 12.4286Z" fill="#A19221"/>
<defs>
<filter id="filter0_d_352_385" x="0.5" y="0" width="34.5" height="32" filterUnits="userSpaceOnUse" color-interpolation-filters="sRGB">
<feFlood flood-opacity="0" result="BackgroundImageFix"/>
<feColorMatrix in="SourceAlpha" type="matrix" values="0 0 0 0 0 0 0 0 0 0 0 0 0 0 0 0 0 0 127 0" result="hardAlpha"/>
<feOffset dy="4"/>
<feGaussianBlur stdDeviation="2"/>
<feComposite in2="hardAlpha" operator="out"/>
<feColorMatrix type="matrix" values="0 0 0 0 0 0 0 0 0 0 0 0 0 0 0 0 0 0 0.25 0"/>
<feBlend mode="normal" in2="BackgroundImageFix" result="effect1_dropShadow_352_385"/>
<feBlend mode="normal" in="SourceGraphic" in2="effect1_dropShadow_352_385" result="shape"/>
</filter>
</defs>
</svg>
