<svg width="29" height="28" viewBox="0 0 29 28" fill="none" xmlns="http://www.w3.org/2000/svg">
<path d="M27.0963 1.86098C27.6776 2.01952 28.1004 2.49516 28.1004 3.07648C28.1004 16.6584 17.108 27.598 3.57894 27.598C2.94477 27.598 2.46913 27.228 2.31059 26.6467L1.04224 21.1505C0.93654 20.5692 1.20078 19.935 1.78211 19.6708L7.70109 17.1341C8.22957 16.9227 8.8109 17.0812 9.18083 17.504L11.8232 20.7277C15.9454 18.7724 19.2748 15.3901 21.1773 11.3736L17.9536 8.73122C17.5308 8.36129 17.3723 7.77996 17.5837 7.25148L20.1204 1.3325C20.3846 0.751171 21.0188 0.434083 21.6001 0.592627L27.0963 1.86098Z" fill="#03FF5C"/>
</svg>
