<svg width="44" height="44" viewBox="0 0 44 44" fill="none" xmlns="http://www.w3.org/2000/svg">
<path d="M39.3153 32.5028C38.9365 32.5026 38.562 32.4228 38.216 32.2686C38.1355 32.2329 38.0587 32.1893 37.9868 32.1384L30.9926 27.2155C30.6379 26.9658 30.3484 26.6345 30.1486 26.2496C29.9487 25.8646 29.8443 25.4372 29.8442 25.0035V18.2897C29.8443 17.8559 29.9487 17.4286 30.1486 17.0436C30.3484 16.6586 30.6379 16.3273 30.9926 16.0777L37.9868 11.1548C38.0587 11.1039 38.1355 11.0603 38.216 11.0245C38.628 10.8414 39.0792 10.7641 39.5287 10.7996C39.9782 10.8352 40.4116 10.9825 40.7897 11.2281C41.1678 11.4738 41.4785 11.81 41.6936 12.2062C41.9086 12.6024 42.0213 13.0461 42.0213 13.497V29.7962C42.0213 30.5138 41.7362 31.202 41.2287 31.7095C40.7213 32.2169 40.033 32.502 39.3153 32.502V32.5028Z" fill="#3072AF"/>
<path d="M22.741 33.8228H7.18144C5.65685 33.8213 4.19515 33.215 3.1171 32.137C2.03905 31.059 1.43272 29.5974 1.43115 28.073V15.2203C1.43272 13.6958 2.03905 12.2343 3.1171 11.1563C4.19515 10.0783 5.65685 9.47203 7.18144 9.47046H22.7816C24.2954 9.47225 25.7466 10.0743 26.817 11.1446C27.8874 12.215 28.4895 13.6661 28.4913 15.1797V28.073C28.4898 29.5974 27.8834 31.059 26.8054 32.137C25.7273 33.215 24.2656 33.8213 22.741 33.8228Z" fill="#3072AF"/>
</svg>
