<svg width="62" height="57" viewBox="0 0 62 57" fill="none" xmlns="http://www.w3.org/2000/svg">
<g filter="url(#filter0_d_398_298)">
<path d="M57.1882 16.0567C57.1882 29.3584 41.3873 48.17 28.0855 48.17C14.7837 48.17 4.00049 37.3868 4.00049 24.085C4.00049 10.7832 14.7837 0 28.0855 0C41.3873 0 57.1882 2.75489 57.1882 16.0567Z" fill="white" fill-opacity="0.1" shape-rendering="crispEdges"/>
</g>
<path d="M42.8611 20.1999C42.2589 17.3665 40.6619 14.7875 38.3637 12.9384C36.0135 11.058 33.0929 10.0342 30.083 10.0356C26.5349 10.0356 23.221 11.4026 20.7434 13.8848C18.3491 16.2867 17.0369 19.4579 17.0474 22.812C17.0475 25.2711 17.7695 27.6761 19.1237 29.7288L19.3771 30.0811L17.9793 36.1277L24.6654 34.4644C24.6654 34.4644 24.7993 34.5092 24.8983 34.5471C24.9974 34.5849 25.8494 34.9116 26.7533 35.1644C27.5046 35.3741 29.0678 35.6886 30.2927 35.6886C33.7667 35.6886 37.0108 34.3432 39.4266 31.8994C41.8209 29.4748 43.1395 26.2512 43.1395 22.819C43.1397 21.9386 43.0464 21.0606 42.8611 20.1999ZM24.5023 24.9454C24.1337 24.9454 23.7734 24.8361 23.4669 24.6313C23.1604 24.4265 22.9215 24.1355 22.7805 23.7949C22.6394 23.4544 22.6025 23.0796 22.6744 22.7181C22.7463 22.3566 22.9238 22.0245 23.1845 21.7638C23.4451 21.5032 23.7772 21.3257 24.1387 21.2538C24.5002 21.1819 24.875 21.2188 25.2155 21.3598C25.5561 21.5009 25.8471 21.7398 26.0519 22.0463C26.2567 22.3527 26.366 22.7131 26.366 23.0817C26.366 23.576 26.1697 24.05 25.8202 24.3995C25.4706 24.749 24.9966 24.9454 24.5023 24.9454ZM30.0935 24.9454C29.7249 24.9454 29.3645 24.8361 29.058 24.6313C28.7516 24.4265 28.5127 24.1355 28.3716 23.7949C28.2306 23.4544 28.1936 23.0796 28.2656 22.7181C28.3375 22.3566 28.515 22.0245 28.7756 21.7638C29.0363 21.5032 29.3683 21.3257 29.7299 21.2538C30.0914 21.1819 30.4661 21.2188 30.8067 21.3598C31.1472 21.5009 31.4383 21.7398 31.6431 22.0463C31.8479 22.3527 31.9572 22.7131 31.9572 23.0817C31.9572 23.576 31.7608 24.05 31.4113 24.3995C31.0618 24.749 30.5878 24.9454 30.0935 24.9454ZM35.6846 24.9454C35.316 24.9454 34.9557 24.8361 34.6492 24.6313C34.3427 24.4265 34.1038 24.1355 33.9628 23.7949C33.8217 23.4544 33.7848 23.0796 33.8567 22.7181C33.9286 22.3566 34.1061 22.0245 34.3668 21.7638C34.6274 21.5032 34.9595 21.3257 35.321 21.2538C35.6826 21.1819 36.0573 21.2188 36.3978 21.3598C36.7384 21.5009 37.0295 21.7398 37.2343 22.0463C37.439 22.3527 37.5483 22.7131 37.5483 23.0817C37.5483 23.576 37.352 24.05 37.0025 24.3995C36.653 24.749 36.1789 24.9454 35.6846 24.9454Z" fill="#A19221"/>
<defs>
<filter id="filter0_d_398_298" x="0.000488281" y="0" width="61.1875" height="56.17" filterUnits="userSpaceOnUse" color-interpolation-filters="sRGB">
<feFlood flood-opacity="0" result="BackgroundImageFix"/>
<feColorMatrix in="SourceAlpha" type="matrix" values="0 0 0 0 0 0 0 0 0 0 0 0 0 0 0 0 0 0 127 0" result="hardAlpha"/>
<feOffset dy="4"/>
<feGaussianBlur stdDeviation="2"/>
<feComposite in2="hardAlpha" operator="out"/>
<feColorMatrix type="matrix" values="0 0 0 0 0 0 0 0 0 0 0 0 0 0 0 0 0 0 0.25 0"/>
<feBlend mode="normal" in2="BackgroundImageFix" result="effect1_dropShadow_398_298"/>
<feBlend mode="normal" in="SourceGraphic" in2="effect1_dropShadow_398_298" result="shape"/>
</filter>
</defs>
</svg>
