<svg width="35" height="32" viewBox="0 0 35 32" fill="none" xmlns="http://www.w3.org/2000/svg">
<g filter="url(#filter0_d_357_273)">
<path d="M30.5 16C30.5 22.6274 23.1274 24 16.5 24C9.87258 24 4.5 18.6274 4.5 12C4.5 5.37258 9.87258 0 16.5 0C23.1274 0 30.5 9.37258 30.5 16Z" fill="white" fill-opacity="0.1" shape-rendering="crispEdges"/>
</g>
<path d="M20.15 10.0042L21.8333 8.32083C22.146 8.00856 22.5698 7.83321 23.0117 7.83333H23.5C23.942 7.83333 24.366 8.00893 24.6785 8.32149C24.9911 8.63405 25.1667 9.05797 25.1667 9.5V14.5C25.1667 14.942 24.9911 15.366 24.6785 15.6785C24.366 15.9911 23.942 16.1667 23.5 16.1667H23.0117C22.5697 16.1666 22.1458 15.9909 21.8333 15.6783L20.15 13.9958C20.0683 14.8188 19.6837 15.582 19.0707 16.1372C18.4578 16.6924 17.6603 16.9999 16.8333 17H11.8333C10.9493 17 10.1014 16.6488 9.47631 16.0237C8.85119 15.3986 8.5 14.5507 8.5 13.6667V10.3333C8.5 9.44928 8.85119 8.60143 9.47631 7.97631C10.1014 7.35119 10.9493 7 11.8333 7H16.8333C17.6603 7.00009 18.4578 7.30761 19.0707 7.8628C19.6837 8.41799 20.0683 9.18121 20.15 10.0042ZM12.6667 13.6667C12.8877 13.6667 13.0996 13.5789 13.2559 13.4226C13.4122 13.2663 13.5 13.0543 13.5 12.8333C13.5 12.6123 13.4122 12.4004 13.2559 12.2441C13.0996 12.0878 12.8877 12 12.6667 12C12.4457 12 12.2337 12.0878 12.0774 12.2441C11.9211 12.4004 11.8333 12.6123 11.8333 12.8333C11.8333 13.0543 11.9211 13.2663 12.0774 13.4226C12.2337 13.5789 12.4457 13.6667 12.6667 13.6667Z" fill="#D32A2A"/>
<defs>
<filter id="filter0_d_357_273" x="0.5" y="0" width="34" height="32" filterUnits="userSpaceOnUse" color-interpolation-filters="sRGB">
<feFlood flood-opacity="0" result="BackgroundImageFix"/>
<feColorMatrix in="SourceAlpha" type="matrix" values="0 0 0 0 0 0 0 0 0 0 0 0 0 0 0 0 0 0 127 0" result="hardAlpha"/>
<feOffset dy="4"/>
<feGaussianBlur stdDeviation="2"/>
<feComposite in2="hardAlpha" operator="out"/>
<feColorMatrix type="matrix" values="0 0 0 0 0 0 0 0 0 0 0 0 0 0 0 0 0 0 0.25 0"/>
<feBlend mode="normal" in2="BackgroundImageFix" result="effect1_dropShadow_357_273"/>
<feBlend mode="normal" in="SourceGraphic" in2="effect1_dropShadow_357_273" result="shape"/>
</filter>
</defs>
</svg>
