<svg width="46" height="42" viewBox="0 0 46 42" fill="none" xmlns="http://www.w3.org/2000/svg">
<g filter="url(#filter0_d_469_1673)">
<path d="M3.99984 11.3333C3.99984 20.7222 15.1527 34 24.5415 34C33.9303 34 41.5415 26.3888 41.5415 17C41.5415 7.61116 33.9303 0 24.5415 0C15.1527 0 3.99984 1.94449 3.99984 11.3333Z" fill="#A19221"/>
</g>
<path d="M13.2071 14.5651C13.6553 12.4562 14.8439 10.5368 16.5544 9.16048C18.3037 7.7609 20.4774 6.99889 22.7177 7C25.3585 7 27.825 8.01738 29.669 9.86488C31.451 11.6526 32.4277 14.0129 32.4199 16.5093C32.4198 18.3396 31.8825 20.1296 30.8745 21.6573L30.6859 21.9196L31.7263 26.42L26.7499 25.182C26.7499 25.182 26.6502 25.2154 26.5765 25.2435C26.5028 25.2717 25.8687 25.5149 25.1959 25.703C24.6367 25.8591 23.4732 26.0932 22.5616 26.0932C19.9759 26.0932 17.5614 25.0918 15.7633 23.2729C13.9813 21.4683 12.9999 19.069 12.9999 16.5145C12.9997 15.8592 13.0692 15.2058 13.2071 14.5651ZM26.8713 18.0971C27.1457 18.0971 27.4138 18.0158 27.642 17.8634C27.8701 17.7109 28.0479 17.4943 28.1529 17.2408C28.2578 16.9874 28.2853 16.7085 28.2318 16.4394C28.1783 16.1703 28.0462 15.9231 27.8522 15.7291C27.6582 15.5351 27.411 15.403 27.1419 15.3495C26.8728 15.296 26.5939 15.3235 26.3405 15.4284C26.087 15.5334 25.8704 15.7112 25.7179 15.9393C25.5655 16.1675 25.4842 16.4356 25.4842 16.71C25.4842 17.0779 25.6303 17.4307 25.8904 17.6909C26.1506 17.951 26.5034 18.0971 26.8713 18.0971ZM22.7099 18.0971C22.9842 18.0971 23.2524 18.0158 23.4805 17.8634C23.7086 17.7109 23.8864 17.4943 23.9914 17.2408C24.0964 16.9874 24.1239 16.7085 24.0704 16.4394C24.0168 16.1703 23.8847 15.9231 23.6907 15.7291C23.4967 15.5351 23.2496 15.403 22.9805 15.3495C22.7114 15.296 22.4325 15.3235 22.179 15.4284C21.9256 15.5334 21.7089 15.7112 21.5565 15.9393C21.4041 16.1675 21.3227 16.4356 21.3227 16.71C21.3227 17.0779 21.4689 17.4307 21.729 17.6909C21.9892 17.951 22.342 18.0971 22.7099 18.0971ZM18.5484 18.0971C18.8228 18.0971 19.091 18.0158 19.3191 17.8634C19.5472 17.7109 19.725 17.4943 19.83 17.2408C19.935 16.9874 19.9625 16.7085 19.9089 16.4394C19.8554 16.1703 19.7233 15.9231 19.5293 15.7291C19.3353 15.5351 19.0881 15.403 18.8191 15.3495C18.55 15.296 18.2711 15.3235 18.0176 15.4284C17.7641 15.5334 17.5475 15.7112 17.3951 15.9393C17.2427 16.1675 17.1613 16.4356 17.1613 16.71C17.1613 17.0779 17.3075 17.4307 17.5676 17.6909C17.8277 17.951 18.1806 18.0971 18.5484 18.0971Z" fill="white"/>
<defs>
<filter id="filter0_d_469_1673" x="0" y="0" width="45.5415" height="42" filterUnits="userSpaceOnUse" color-interpolation-filters="sRGB">
<feFlood flood-opacity="0" result="BackgroundImageFix"/>
<feColorMatrix in="SourceAlpha" type="matrix" values="0 0 0 0 0 0 0 0 0 0 0 0 0 0 0 0 0 0 127 0" result="hardAlpha"/>
<feOffset dy="4"/>
<feGaussianBlur stdDeviation="2"/>
<feComposite in2="hardAlpha" operator="out"/>
<feColorMatrix type="matrix" values="0 0 0 0 0 0 0 0 0 0 0 0 0 0 0 0 0 0 0.25 0"/>
<feBlend mode="normal" in2="BackgroundImageFix" result="effect1_dropShadow_469_1673"/>
<feBlend mode="normal" in="SourceGraphic" in2="effect1_dropShadow_469_1673" result="shape"/>
</filter>
</defs>
</svg>
