<svg width="65" height="60" viewBox="0 0 65 60" fill="none" xmlns="http://www.w3.org/2000/svg">
<g filter="url(#filter0_d_396_293)">
<path d="M58.3685 32.1111C58.3685 45.412 43.5722 48.1667 30.2713 48.1667C16.9705 48.1667 6.18799 37.3842 6.18799 24.0833C6.18799 10.7825 16.9705 0 30.2713 0C43.5722 0 58.3685 18.8103 58.3685 32.1111Z" fill="#0B8B3E"/>
</g>
<path d="M38.2166 21.7289L41.4267 18.5188C42.0228 17.9233 42.8311 17.5889 43.6738 17.5892H44.605C45.448 17.5892 46.2564 17.924 46.8524 18.5201C47.4485 19.1161 47.7833 19.9246 47.7833 20.7675V30.3025C47.7833 31.1454 47.4485 31.9539 46.8524 32.5499C46.2564 33.146 45.448 33.4808 44.605 33.4808H43.6738C42.8309 33.4807 42.0226 33.1457 41.4267 32.5496L38.2166 29.3411C38.0608 30.9104 37.3272 32.3659 36.1584 33.4246C34.9895 34.4834 33.4688 35.0698 31.8917 35.07H22.3567C20.6708 35.07 19.0539 34.4003 17.8618 33.2082C16.6697 32.0161 16 30.3992 16 28.7133V22.3567C16 20.6708 16.6697 19.0539 17.8618 17.8618C19.0539 16.6697 20.6708 16 22.3567 16H31.8917C33.4688 16.0002 34.9895 16.5866 36.1584 17.6454C37.3272 18.7041 38.0608 20.1596 38.2166 21.7289ZM23.9458 28.7133C24.3673 28.7133 24.7715 28.5459 25.0695 28.2479C25.3676 27.9499 25.535 27.5456 25.535 27.1242C25.535 26.7027 25.3676 26.2985 25.0695 26.0005C24.7715 25.7024 24.3673 25.535 23.9458 25.535C23.5244 25.535 23.1202 25.7024 22.8221 26.0005C22.5241 26.2985 22.3567 26.7027 22.3567 27.1242C22.3567 27.5456 22.5241 27.9499 22.8221 28.2479C23.1202 28.5459 23.5244 28.7133 23.9458 28.7133Z" fill="white"/>
<defs>
<filter id="filter0_d_396_293" x="0.521322" y="0" width="63.514" height="59.5" filterUnits="userSpaceOnUse" color-interpolation-filters="sRGB">
<feFlood flood-opacity="0" result="BackgroundImageFix"/>
<feColorMatrix in="SourceAlpha" type="matrix" values="0 0 0 0 0 0 0 0 0 0 0 0 0 0 0 0 0 0 127 0" result="hardAlpha"/>
<feOffset dy="5.66667"/>
<feGaussianBlur stdDeviation="2.83333"/>
<feComposite in2="hardAlpha" operator="out"/>
<feColorMatrix type="matrix" values="0 0 0 0 0 0 0 0 0 0 0 0 0 0 0 0 0 0 0.25 0"/>
<feBlend mode="normal" in2="BackgroundImageFix" result="effect1_dropShadow_396_293"/>
<feBlend mode="normal" in="SourceGraphic" in2="effect1_dropShadow_396_293" result="shape"/>
</filter>
</defs>
</svg>
